<svg width="256" height="256" viewBox="0 0 256 256" fill="none" xmlns="http://www.w3.org/2000/svg">
<rect width="256" height="256" fill="white"/>
<path d="M129.763 82.6153C120.726 82.6153 113.426 86.5731 107.865 94.4889C102.402 102.405 99.6712 113.239 99.6712 126.993C99.6712 140.746 102.452 151.532 108.014 159.348C113.575 167.165 120.527 171.074 128.869 171.074C137.311 171.074 143.17 168.946 146.447 164.692C149.824 160.338 151.512 154.005 151.512 145.694V139.757C151.512 138.57 150.817 137.976 149.427 137.976H139.446V135.304H169.836V137.976H165.813C164.423 137.976 163.728 138.57 163.728 139.757V145.1C163.728 153.906 160.55 161.179 154.194 166.918C147.838 172.558 139.694 175.378 129.763 175.378C117.25 175.378 106.971 171.074 98.9264 162.465C90.9814 153.857 87.0089 142.033 87.0089 126.993C87.0089 111.854 90.9317 99.9804 98.7774 91.3721C106.722 82.6647 117.051 78.3111 129.763 78.3111C136.218 78.3111 142.674 79.9437 149.129 83.209C151.214 84.2974 152.704 84.8416 153.598 84.8416C155.088 84.8416 155.882 83.8026 155.981 81.7248L156.13 79.2016H158.961V104.878H156.279C155.386 97.2594 152.506 91.6689 147.639 88.1068C142.872 84.4458 136.913 82.6153 129.763 82.6153Z" fill="black"/>
<path fill-rule="evenodd" clip-rule="evenodd" d="M222.985 149.153C213.297 192.524 174.449 224.949 128 224.949C81.5504 224.949 42.7024 192.524 33.0151 149.153H25.7758C35.5838 196.447 77.6246 232 128 232C178.375 232 220.416 196.447 230.224 149.153H222.985ZM33.0151 106.847C42.7024 63.4764 81.5504 31.0508 128 31.0508C174.449 31.0508 213.297 63.4764 222.985 106.847H230.224C220.416 59.5526 178.375 24 128 24C77.6246 24 35.5838 59.5526 25.7758 106.847H33.0151Z" fill="black"/>
<path fill-rule="evenodd" clip-rule="evenodd" d="M208.626 149.153C199.242 184.661 166.794 210.847 128.207 210.847C89.6199 210.847 57.1717 184.661 47.7878 149.153H45.9592C55.3865 185.645 88.636 212.61 128.207 212.61C167.778 212.61 201.027 185.645 210.454 149.153H208.626ZM47.7878 106.847C57.1717 71.3386 89.6199 45.1525 128.207 45.1525C166.794 45.1525 199.242 71.3386 208.626 106.847H210.454C201.027 70.3545 167.778 43.3898 128.207 43.3898C88.636 43.3898 55.3865 70.3545 45.9592 106.847H47.7878Z" fill="black"/>
<path fill-rule="evenodd" clip-rule="evenodd" d="M62.5385 128H13V126.237H62.5385V128Z" fill="black"/>
<path fill-rule="evenodd" clip-rule="evenodd" d="M243 128H193.462V126.237H243V128Z" fill="black"/>
</svg>
