<?xml version="1.0" standalone="no"?>
<svg xmlns:xlink="http://www.w3.org/1999/xlink" id="wave" style="transform:rotate(180deg); transition: 0.3s" viewBox="0 0 1440 490" version="1.1" xmlns="http://www.w3.org/2000/svg"><defs><linearGradient id="sw-gradient-0" x1="0" x2="0" y1="1" y2="0"><stop stop-color="rgba(180, 5, 0, 1)" offset="0%"/><stop stop-color="rgba(180, 5, 0, 1)" offset="100%"/></linearGradient></defs><path style="transform:translate(0, 0px); opacity:1" fill="url(#sw-gradient-0)" d="M0,343L30,318.5C60,294,120,245,180,187.8C240,131,300,65,360,40.8C420,16,480,33,540,98C600,163,660,278,720,343C780,408,840,425,900,359.3C960,294,1020,147,1080,138.8C1140,131,1200,261,1260,326.7C1320,392,1380,392,1440,383.8C1500,376,1560,359,1620,326.7C1680,294,1740,245,1800,212.3C1860,180,1920,163,1980,196C2040,229,2100,310,2160,310.3C2220,310,2280,229,2340,163.3C2400,98,2460,49,2520,49C2580,49,2640,98,2700,163.3C2760,229,2820,310,2880,334.8C2940,359,3000,327,3060,326.7C3120,327,3180,359,3240,359.3C3300,359,3360,327,3420,285.8C3480,245,3540,196,3600,147C3660,98,3720,49,3780,32.7C3840,16,3900,33,3960,40.8C4020,49,4080,49,4140,81.7C4200,114,4260,180,4290,212.3L4320,245L4320,490L4290,490C4260,490,4200,490,4140,490C4080,490,4020,490,3960,490C3900,490,3840,490,3780,490C3720,490,3660,490,3600,490C3540,490,3480,490,3420,490C3360,490,3300,490,3240,490C3180,490,3120,490,3060,490C3000,490,2940,490,2880,490C2820,490,2760,490,2700,490C2640,490,2580,490,2520,490C2460,490,2400,490,2340,490C2280,490,2220,490,2160,490C2100,490,2040,490,1980,490C1920,490,1860,490,1800,490C1740,490,1680,490,1620,490C1560,490,1500,490,1440,490C1380,490,1320,490,1260,490C1200,490,1140,490,1080,490C1020,490,960,490,900,490C840,490,780,490,720,490C660,490,600,490,540,490C480,490,420,490,360,490C300,490,240,490,180,490C120,490,60,490,30,490L0,490Z"/></svg>